<svg width="20" height="15" viewBox="0 0 20 15" fill="none" xmlns="http://www.w3.org/2000/svg">
<path fill-rule="evenodd" clip-rule="evenodd" d="M4.40779 0.00601653C3.97356 0.0474424 3.55419 0.143343 3.14177 0.295515C2.46347 0.545803 1.92256 0.897342 1.39841 1.42851C0.629081 2.20812 0.182252 3.13208 0.0350045 4.24779C-0.0675755 5.02506 0.0612338 6.10941 0.343718 6.8465C0.792538 8.01768 1.55074 8.83961 2.4096 9.08602C2.72286 9.17589 2.82845 9.23567 3.02313 9.43344C3.27699 9.69129 3.41642 10.0066 3.47128 10.4468C3.51695 10.8131 3.41382 11.3224 3.21234 11.7259C3.02575 12.0996 2.65339 12.5569 2.25294 12.9042C1.80938 13.2889 1.10558 13.7375 0.515529 14.0116C0.173596 14.1704 0.128019 14.2014 0.0579659 14.3225C-0.0846506 14.5691 0.0543951 14.9125 0.325734 14.9838C0.422687 15.0093 0.474605 15.0058 0.830172 14.9495C1.58307 14.8303 2.39709 14.634 3.0188 14.4217C3.60641 14.2211 3.7782 14.1521 4.26913 13.9199C6.08815 13.0593 7.45911 11.8362 8.40464 10.2303C8.72905 9.67929 8.9832 9.09576 9.17642 8.45836C9.4702 7.48916 9.55813 6.87238 9.55782 5.7829C9.55752 4.67508 9.45819 4.06303 9.1361 3.18419C8.70466 2.00694 7.90754 1.05662 6.88572 0.501263C6.53505 0.310691 5.94329 0.118737 5.48986 0.0484732C5.26641 0.0138676 4.59968 -0.0122951 4.40779 0.00601653ZM14.7562 0.0157535C14.3125 0.067311 13.9939 0.145229 13.5296 0.315735C12.5629 0.67076 11.7148 1.37643 11.1495 2.29604C10.9594 2.60523 10.8565 2.81802 10.7277 3.16826C10.5121 3.75428 10.4349 4.20266 10.4349 4.86909C10.4349 5.54921 10.5127 6.03941 10.7209 6.67106C10.847 7.05385 10.9184 7.21765 11.1027 7.54675C11.3016 7.90182 11.4571 8.11117 11.7226 8.38091C12.0889 8.75304 12.436 8.96892 12.8714 9.0953C13.2347 9.20076 13.4113 9.32519 13.6107 9.6162C14.1639 10.4238 13.9657 11.5337 13.0947 12.5056C12.6142 13.0416 11.7935 13.6159 10.9327 14.0184C10.5903 14.1785 10.4775 14.2722 10.4385 14.4289C10.3794 14.667 10.5255 14.9233 10.7545 14.9833C10.859 15.0107 10.9016 15.0078 11.2703 14.9487C12.3557 14.7747 13.3939 14.4893 14.2307 14.1348C15.0437 13.7904 15.9387 13.2828 16.4782 12.8601C16.5739 12.7851 16.697 12.69 16.7519 12.6487C16.9387 12.5081 17.3487 12.1274 17.6307 11.8328C18.5748 10.8463 19.2108 9.75145 19.6418 8.37064C19.777 7.93785 19.9254 7.13083 19.9786 6.53948C20.0116 6.17338 20.0054 5.30423 19.9672 4.93249C19.9087 4.3636 19.749 3.64741 19.5846 3.21708C19.2088 2.23334 18.7145 1.53397 17.9638 0.924118C17.8064 0.796222 17.44 0.560956 17.2397 0.459135C16.9046 0.288761 16.3473 0.114198 15.9285 0.0483855C15.6626 0.00660878 14.9949 -0.0119661 14.7562 0.0157535Z" fill="#FF4040"/>
</svg>
