<svg width="20" height="20" viewBox="0 0 20 20" fill="none" xmlns="http://www.w3.org/2000/svg">
<path fill-rule="evenodd" clip-rule="evenodd" d="M20 10C20 15.5225 15.5234 20 10 20C4.47656 20 0 15.5225 0 10C0 4.47754 4.47656 0 10 0C15.5234 0 20 4.47754 20 10ZM15.2773 6.46289C15.5312 6.13672 15.4727 5.66602 15.1484 5.41016C14.8242 5.1543 14.3516 5.21094 14.0938 5.53711L8.58203 12.5654L5.54688 9.34277C5.26172 9.04102 4.78906 9.02734 4.48438 9.31152C4.18359 9.59473 4.17188 10.0693 4.45312 10.3711L8.08594 14.2285C8.23438 14.3877 8.44922 14.4736 8.66406 14.4639C8.88281 14.4541 9.08594 14.3496 9.22266 14.1777L15.2773 6.46289Z" fill="#858585"/>
</svg>
